<svg height="480pt" viewBox="-63 0 479 480" width="480pt" xmlns="http://www.w3.org/2000/svg"><path d="m8.5 472h336v-224h-336zm104-128h48v-48h32v48h48v32h-48v48h-32v-48h-48zm0 0" fill="#9bc9ff"/><path d="m236.5 195.121094c15.171875-17.242188 37.03125-27.125 60-27.121094 8.117188-.011719 16.183594 1.226562 23.921875 3.679688.078125-1.199219.078125-2.480469.078125-3.679688 0-79.527344-64.472656-144-144-144s-144 64.472656-144 144c0 1.199219 0 2.480469.078125 3.679688 7.738281-2.453126 15.804687-3.691407 23.921875-3.679688 22.96875-.003906 44.828125 9.878906 60 27.121094 15.175781-17.242188 37.03125-27.121094 60-27.121094s44.824219 9.878906 60 27.121094zm0 0" fill="#9bc9ff"/><g fill="#1e81ce"><path d="m344.5 240h-160v-63.535156c17.773438 2.011718 34.164062 10.546875 46.007812 23.949218l5.992188 6.777344 5.992188-6.777344c13.675781-15.492187 33.339843-24.382812 54.007812-24.414062 7.292969-.015625 14.542969 1.097656 21.496094 3.304688l9.742187 3.101562.664063-10.214844c.097656-1.359375.097656-2.816406.097656-4.191406-.132812-80.75-63.363281-147.3125-144-151.59375v-8.40625c0-4.417969-3.582031-8-8-8s-8 3.582031-8 8v8.40625c-80.636719 4.28125-143.867188 70.84375-144 151.59375 0 1.375 0 2.832031.097656 4.191406l.703125 10.207032 9.742188-3.101563c6.941406-2.199219 14.179687-3.308594 21.457031-3.296875 20.667969.03125 40.332031 8.921875 54.007812 24.414062l5.992188 6.777344 5.992188-6.777344c11.84375-13.402343 28.234374-21.9375 46.007812-23.949218v63.535156h-160c-4.417969 0-8 3.582031-8 8v224c0 4.417969 3.582031 8 8 8h336c4.417969 0 8-3.582031 8-8v-224c0-4.417969-3.582031-8-8-8zm-228-56.328125c-20.339844-18.992187-48.464844-27.242187-75.839844-22.238281 3.519532-72.464844 63.292969-129.40625 135.839844-129.40625s132.320312 56.941406 135.839844 129.40625c-27.375-5.003906-55.5 3.246094-75.839844 22.238281-33.773438-31.5625-86.226562-31.5625-120 0zm220 280.328125h-320v-208h320zm0 0"/><path d="m152.5 288v48h-48v48h48v48h48v-48h48v-48h-48v-48zm80 64v16h-48v48h-16v-48h-48v-16h48v-48h16v48zm0 0"/></g></svg>