<?xml version="1.0" encoding="UTF-8" standalone="no"?>
<!-- Generator: Adobe Illustrator 16.0.0, SVG Export Plug-In . SVG Version: 6.00 Build 0)  -->

<svg
   xmlns:dc="http://purl.org/dc/elements/1.1/"
   xmlns:cc="http://creativecommons.org/ns#"
   xmlns:rdf="http://www.w3.org/1999/02/22-rdf-syntax-ns#"
   xmlns:svg="http://www.w3.org/2000/svg"
   xmlns="http://www.w3.org/2000/svg"
   xmlns:sodipodi="http://sodipodi.sourceforge.net/DTD/sodipodi-0.dtd"
   xmlns:inkscape="http://www.inkscape.org/namespaces/inkscape"
   version="1.1"
   id="Capa_1"
   x="0px"
   y="0px"
   width="430"
   height="948.07501"
   viewBox="0 0 429.99999 948.075"
   xml:space="preserve"
   sodipodi:docname="woman-searching.svg"
   inkscape:version="0.92.2 5c3e80d, 2017-08-06"><metadata
     id="metadata45"><rdf:RDF><cc:Work
         rdf:about=""><dc:format>image/svg+xml</dc:format><dc:type
           rdf:resource="http://purl.org/dc/dcmitype/StillImage" /><dc:title /></cc:Work></rdf:RDF></metadata><defs
     id="defs43" /><sodipodi:namedview
     pagecolor="#ffffff"
     bordercolor="#666666"
     borderopacity="1"
     objecttolerance="10"
     gridtolerance="10"
     guidetolerance="10"
     inkscape:pageopacity="0"
     inkscape:pageshadow="2"
     inkscape:window-width="1440"
     inkscape:window-height="801"
     id="namedview41"
     showgrid="false"
     inkscape:zoom="0.24892545"
     inkscape:cx="-249.07055"
     inkscape:cy="474.03751"
     inkscape:window-x="0"
     inkscape:window-y="1"
     inkscape:window-maximized="1"
     inkscape:current-layer="Capa_1" /><g
     id="g8"
     transform="translate(-256.538)"
     style="fill:#7b1fa2;fill-opacity:1"><g
       id="g6"
       style="fill:#7b1fa2;fill-opacity:1"><path
         d="m 318.237,553 c 0,0 17.7,-176.3 53.8,-220.6 -6.399,16.7 -8,34.1 -6.199,53.7 1.5,16.8 7.699,30.2 10.699,46.7 -6.699,41.7 -32.699,138.6 -66.399,188.6 -20.601,30.601 9.899,29.301 54.8,21.101 l 24.5,270.1 c 0,47.2 44.8,47.2 44.8,-0.2 L 449.338,625 c 5.6,-1.601 9.6,-2.8 11.3,-3.3 1.7,0.5 5.7,1.699 11.3,3.3 l 15,287.5 c 0,47.399 43.799,47.399 43.799,0.2 l 24.5,-270.101 c 10,1.8 19.4,3.3 27.701,4.2 v 153.3 c 0,10.9 8.9,19.8 19.799,19.8 h 59 c 10.9,0 19.801,-8.899 19.801,-19.8 v -167.7 c 0,-10.899 -8.9,-19.8 -19.801,-19.8 h -9.5 v -41.2 c 0,-1.8 -0.299,-3.5 -0.699,-5.199 1.9,-4.101 2.9,-9 2.9,-14.801 -0.301,-5.199 -0.701,-10.399 -1.1,-15.5 -4.602,-59.399 -12.102,-119 -25,-176.899 -8,-36.3 -15.602,-74.8 -35.701,-105.9 -17.9,-27.7 -41.699,-37.1 -68.4,-45.4 -12,-3.7 -24.898,2.7 -29.1,14.6 -7.4,20.8 -18.6,57 -26.2,82.3 -2.5,8.4 -14.4,8.4 -16.9,0 -7.699,-25.3 -18.899,-61.5 -26.199,-82.3 -4.2,-11.9 -17.101,-18.4 -29.101,-14.6 -26.7,8.3 -50.5,17.7 -68.399,45.4 -20.101,31.1 -27.601,69.5 -35.7,105.9 -12.8,58 -20.3,117.5 -25,176.899 -0.4,5.2 -0.8,10.301 -1.1,15.5 0.1,39.901 51.699,39.5 51.699,1.601 z M 549.038,332.4 c 36.1,44.3 53.801,220.6 53.801,220.6 0,10.3 3.799,17.8 9.398,22.5 v 37 h -6.799 c -31,-51.9 -54.5,-140.4 -60.801,-179.7 3,-16.5 9.201,-29.9 10.701,-46.7 1.7,-19.6 0.1,-37 -6.3,-53.7 z"
         id="path2"
         inkscape:connector-curvature="0"
         style="fill:#7b1fa2;fill-opacity:1" /><path
         d="m 402.737,161.9 c 15.5,13.5 35.8,36.4 57.9,36.4 22.099,0 42.4,-22.9 57.9,-36.4 15.1,7.9 37.199,15.8 58.301,6.5 -4.301,-11.4 -7.9,-23.2 -10.9,-35 -8.1,-31.7 -5.1,-64 -26.201,-91.2 -19,-24.5 -48.6,-42.2 -79.099,-42.2 -30.5,0 -60.101,17.6 -79.101,42.2 -21.1,27.2 -18,59.5 -26.199,91.2 -3,11.8 -6.601,23.6 -10.9,35 21,9.2 43.2,1.4 58.299,-6.5 z"
         id="path4"
         inkscape:connector-curvature="0"
         style="fill:#7b1fa2;fill-opacity:1" /></g></g><g
     id="g10" /><g
     id="g12" /><g
     id="g14" /><g
     id="g16" /><g
     id="g18" /><g
     id="g20" /><g
     id="g22" /><g
     id="g24" /><g
     id="g26" /><g
     id="g28" /><g
     id="g30" /><g
     id="g32" /><g
     id="g34" /><g
     id="g36" /><g
     id="g38" /></svg>